<mxfile host="www.draw.io" modified="2020-03-12T07:54:50.693Z" agent="Mozilla/5.0 (Macintosh; Intel Mac OS X 10_13_6) AppleWebKit/537.36 (KHTML, like Gecko) Chrome/80.0.3987.132 Safari/537.36" etag="1zttdW8nOYv9ZqDSNH-1" version="12.8.2" type="github">
  <diagram id="geXMmBKTxSkMzPGcvJaV" name="Page-1">
    <mxGraphModel dx="1706" dy="555" grid="1" gridSize="10" guides="1" tooltips="1" connect="1" arrows="1" fold="1" page="1" pageScale="1" pageWidth="827" pageHeight="1169" math="0" shadow="0">
      <root>
        <mxCell id="0" />
        <mxCell id="1" parent="0" />
        <mxCell id="jUUPXSAqXy0v0D-0EIsb-1" value="&lt;font style=&quot;font-size: 18px&quot;&gt;一、登录注册&lt;/font&gt;" style="text;html=1;strokeColor=none;fillColor=none;align=center;verticalAlign=middle;whiteSpace=wrap;rounded=0;" vertex="1" parent="1">
          <mxGeometry y="60" width="130" height="20" as="geometry" />
        </mxCell>
        <mxCell id="jUUPXSAqXy0v0D-0EIsb-52" value="&lt;font style=&quot;font-size: 15px&quot;&gt;2.&amp;nbsp; 数据库&lt;/font&gt;" style="text;html=1;strokeColor=none;fillColor=none;align=center;verticalAlign=middle;whiteSpace=wrap;rounded=0;" vertex="1" parent="1">
          <mxGeometry x="-5" y="380" width="130" height="20" as="geometry" />
        </mxCell>
        <mxCell id="jUUPXSAqXy0v0D-0EIsb-54" value="&lt;table border=&quot;1&quot; width=&quot;100%&quot; style=&quot;width: 100% ; height: 100% ; border-collapse: collapse&quot;&gt;&lt;tbody&gt;&lt;tr&gt;&lt;td&gt;字段&lt;/td&gt;&lt;td&gt;名称&lt;/td&gt;&lt;/tr&gt;&lt;tr&gt;&lt;td&gt;id&lt;/td&gt;&lt;td&gt;自增列&lt;/td&gt;&lt;/tr&gt;&lt;tr&gt;&lt;td&gt;&lt;span style=&quot;font-size: 10px&quot;&gt;mobile&lt;/span&gt;&lt;br&gt;&lt;/td&gt;&lt;td&gt;打码手机号&lt;/td&gt;&lt;/tr&gt;&lt;tr&gt;&lt;td&gt;&lt;span style=&quot;font-size: 10px&quot;&gt;encrypt_mobile&lt;/span&gt;&lt;br&gt;&lt;/td&gt;&lt;td&gt;&amp;nbsp;手机号hash值&lt;/td&gt;&lt;/tr&gt;&lt;tr&gt;&lt;td&gt;created_at&lt;/td&gt;&lt;td&gt;创建时间&lt;/td&gt;&lt;/tr&gt;&lt;tr&gt;&lt;td&gt;&lt;span style=&quot;font-size: 10px&quot;&gt;updated_at&lt;/span&gt;&lt;br&gt;&lt;/td&gt;&lt;td&gt;更新时间&lt;/td&gt;&lt;/tr&gt;&lt;/tbody&gt;&lt;/table&gt;" style="text;html=1;strokeColor=none;fillColor=none;overflow=fill;fontSize=10;align=left;" vertex="1" parent="1">
          <mxGeometry x="35" y="430" width="290" height="180" as="geometry" />
        </mxCell>
        <mxCell id="jUUPXSAqXy0v0D-0EIsb-55" value="user 表" style="text;html=1;align=center;verticalAlign=middle;resizable=0;points=[];autosize=1;fontSize=10;" vertex="1" parent="1">
          <mxGeometry x="35" y="410" width="50" height="20" as="geometry" />
        </mxCell>
        <mxCell id="jUUPXSAqXy0v0D-0EIsb-56" value="&lt;table border=&quot;1&quot; width=&quot;100%&quot; style=&quot;width: 100% ; height: 100% ; border-collapse: collapse&quot;&gt;&lt;tbody&gt;&lt;tr&gt;&lt;td&gt;字段&lt;/td&gt;&lt;td&gt;名称&lt;/td&gt;&lt;/tr&gt;&lt;tr&gt;&lt;td&gt;id&lt;/td&gt;&lt;td&gt;自增列&lt;/td&gt;&lt;/tr&gt;&lt;tr&gt;&lt;td&gt;&lt;span style=&quot;font-size: 10px&quot;&gt;token&lt;/span&gt;&lt;br&gt;&lt;/td&gt;&lt;td&gt;token&lt;/td&gt;&lt;/tr&gt;&lt;tr&gt;&lt;td&gt;&lt;span style=&quot;font-size: 10px&quot;&gt;user_id&lt;/span&gt;&lt;br&gt;&lt;/td&gt;&lt;td&gt;&amp;nbsp;user表id&lt;/td&gt;&lt;/tr&gt;&lt;tr&gt;&lt;td&gt;created_at&lt;/td&gt;&lt;td&gt;创建时间&lt;/td&gt;&lt;/tr&gt;&lt;tr&gt;&lt;td&gt;&lt;span style=&quot;font-size: 10px&quot;&gt;updated_at&lt;/span&gt;&lt;br&gt;&lt;/td&gt;&lt;td&gt;更新时间&lt;/td&gt;&lt;/tr&gt;&lt;/tbody&gt;&lt;/table&gt;" style="text;html=1;strokeColor=none;fillColor=none;overflow=fill;fontSize=10;align=left;" vertex="1" parent="1">
          <mxGeometry x="35" y="650" width="290" height="180" as="geometry" />
        </mxCell>
        <mxCell id="jUUPXSAqXy0v0D-0EIsb-60" value="user_token 表" style="text;html=1;align=center;verticalAlign=middle;resizable=0;points=[];autosize=1;fontSize=10;" vertex="1" parent="1">
          <mxGeometry x="35" y="630" width="90" height="20" as="geometry" />
        </mxCell>
        <mxCell id="jUUPXSAqXy0v0D-0EIsb-89" style="edgeStyle=orthogonalEdgeStyle;rounded=0;jumpSize=0;orthogonalLoop=1;jettySize=auto;html=1;entryX=0;entryY=0.5;entryDx=0;entryDy=0;endArrow=block;endFill=1;strokeColor=#0066CC;fontSize=10;" edge="1" parent="1" source="jUUPXSAqXy0v0D-0EIsb-85" target="jUUPXSAqXy0v0D-0EIsb-86">
          <mxGeometry relative="1" as="geometry" />
        </mxCell>
        <mxCell id="jUUPXSAqXy0v0D-0EIsb-85" value="用户" style="ellipse;whiteSpace=wrap;html=1;strokeColor=#0066CC;fillColor=#FFFFFF;fontSize=10;" vertex="1" parent="1">
          <mxGeometry x="85" y="130" width="140" height="70" as="geometry" />
        </mxCell>
        <mxCell id="jUUPXSAqXy0v0D-0EIsb-86" value="商户后台" style="ellipse;whiteSpace=wrap;html=1;strokeColor=#0066CC;fillColor=#FFFFFF;fontSize=10;" vertex="1" parent="1">
          <mxGeometry x="290" y="130" width="140" height="70" as="geometry" />
        </mxCell>
        <mxCell id="jUUPXSAqXy0v0D-0EIsb-91" style="edgeStyle=orthogonalEdgeStyle;rounded=0;jumpSize=0;orthogonalLoop=1;jettySize=auto;html=1;entryX=0.5;entryY=1;entryDx=0;entryDy=0;endArrow=none;endFill=0;strokeColor=#0066CC;fontSize=10;startArrow=block;startFill=1;" edge="1" parent="1" source="jUUPXSAqXy0v0D-0EIsb-87" target="jUUPXSAqXy0v0D-0EIsb-86">
          <mxGeometry relative="1" as="geometry" />
        </mxCell>
        <mxCell id="jUUPXSAqXy0v0D-0EIsb-87" value="msgsvr" style="ellipse;whiteSpace=wrap;html=1;strokeColor=#0066CC;fillColor=#FFFFFF;fontSize=10;" vertex="1" parent="1">
          <mxGeometry x="200" y="260" width="140" height="70" as="geometry" />
        </mxCell>
        <mxCell id="jUUPXSAqXy0v0D-0EIsb-92" style="edgeStyle=orthogonalEdgeStyle;rounded=0;jumpSize=0;orthogonalLoop=1;jettySize=auto;html=1;endArrow=none;endFill=0;strokeColor=#0066CC;fontSize=10;startArrow=block;startFill=1;" edge="1" parent="1" source="jUUPXSAqXy0v0D-0EIsb-88">
          <mxGeometry relative="1" as="geometry">
            <mxPoint x="360" y="200" as="targetPoint" />
            <Array as="points">
              <mxPoint x="460" y="230" />
              <mxPoint x="360" y="230" />
            </Array>
          </mxGeometry>
        </mxCell>
        <mxCell id="jUUPXSAqXy0v0D-0EIsb-88" value="Redis" style="ellipse;whiteSpace=wrap;html=1;strokeColor=#0066CC;fillColor=#FFFFFF;fontSize=10;" vertex="1" parent="1">
          <mxGeometry x="390" y="260" width="140" height="70" as="geometry" />
        </mxCell>
        <mxCell id="jUUPXSAqXy0v0D-0EIsb-93" value="&lt;font style=&quot;font-size: 15px&quot;&gt;1.&amp;nbsp; 涉及系统&lt;/font&gt;" style="text;html=1;strokeColor=none;fillColor=none;align=center;verticalAlign=middle;whiteSpace=wrap;rounded=0;" vertex="1" parent="1">
          <mxGeometry x="-5" y="100" width="145" height="20" as="geometry" />
        </mxCell>
        <mxCell id="jUUPXSAqXy0v0D-0EIsb-94" value="&lt;font style=&quot;font-size: 15px&quot;&gt;3.&amp;nbsp; 涉及接口&lt;/font&gt;" style="text;html=1;strokeColor=none;fillColor=none;align=center;verticalAlign=middle;whiteSpace=wrap;rounded=0;" vertex="1" parent="1">
          <mxGeometry x="2.5" y="850" width="130" height="20" as="geometry" />
        </mxCell>
        <mxCell id="jUUPXSAqXy0v0D-0EIsb-95" value="登录： login&amp;nbsp; &amp;nbsp; &amp;nbsp; &amp;nbsp; &amp;nbsp; &amp;nbsp; &amp;nbsp; &amp;nbsp; &amp;nbsp; &amp;nbsp; &lt;br&gt;&amp;nbsp;&lt;br&gt;退出：logout&amp;nbsp; &amp;nbsp; &amp;nbsp; &amp;nbsp; &amp;nbsp; &amp;nbsp; &amp;nbsp; &amp;nbsp; &amp;nbsp; &amp;nbsp;&lt;br&gt;&lt;br&gt;发送短信接口：sms/send" style="text;html=1;strokeColor=none;fillColor=none;align=center;verticalAlign=middle;whiteSpace=wrap;rounded=0;fontSize=10;" vertex="1" parent="1">
          <mxGeometry x="30" y="870" width="160" height="90" as="geometry" />
        </mxCell>
        <mxCell id="jUUPXSAqXy0v0D-0EIsb-96" value="&lt;font style=&quot;font-size: 18px&quot;&gt;二、商户管理&lt;/font&gt;" style="text;html=1;strokeColor=none;fillColor=none;align=center;verticalAlign=middle;whiteSpace=wrap;rounded=0;" vertex="1" parent="1">
          <mxGeometry y="1200" width="130" height="20" as="geometry" />
        </mxCell>
        <mxCell id="jUUPXSAqXy0v0D-0EIsb-97" value="&lt;font style=&quot;font-size: 15px&quot;&gt;1.&amp;nbsp; 涉及系统&lt;/font&gt;" style="text;html=1;strokeColor=none;fillColor=none;align=center;verticalAlign=middle;whiteSpace=wrap;rounded=0;" vertex="1" parent="1">
          <mxGeometry x="-5" y="1240" width="145" height="20" as="geometry" />
        </mxCell>
        <mxCell id="jUUPXSAqXy0v0D-0EIsb-101" style="edgeStyle=orthogonalEdgeStyle;rounded=0;jumpSize=0;orthogonalLoop=1;jettySize=auto;html=1;entryX=0;entryY=0.5;entryDx=0;entryDy=0;startArrow=none;startFill=0;endArrow=block;endFill=1;strokeColor=#0066CC;fontSize=10;" edge="1" parent="1" source="jUUPXSAqXy0v0D-0EIsb-98" target="jUUPXSAqXy0v0D-0EIsb-99">
          <mxGeometry relative="1" as="geometry" />
        </mxCell>
        <mxCell id="jUUPXSAqXy0v0D-0EIsb-98" value="用户" style="ellipse;whiteSpace=wrap;html=1;strokeColor=#0066CC;fillColor=#FFFFFF;fontSize=10;" vertex="1" parent="1">
          <mxGeometry x="80" y="1280" width="140" height="70" as="geometry" />
        </mxCell>
        <mxCell id="jUUPXSAqXy0v0D-0EIsb-102" style="edgeStyle=orthogonalEdgeStyle;rounded=0;jumpSize=0;orthogonalLoop=1;jettySize=auto;html=1;entryX=0;entryY=0.5;entryDx=0;entryDy=0;startArrow=none;startFill=0;endArrow=block;endFill=1;strokeColor=#0066CC;fontSize=10;" edge="1" parent="1" source="jUUPXSAqXy0v0D-0EIsb-99" target="jUUPXSAqXy0v0D-0EIsb-100">
          <mxGeometry relative="1" as="geometry" />
        </mxCell>
        <mxCell id="jUUPXSAqXy0v0D-0EIsb-99" value="商户后台" style="ellipse;whiteSpace=wrap;html=1;strokeColor=#0066CC;fillColor=#FFFFFF;fontSize=10;" vertex="1" parent="1">
          <mxGeometry x="280" y="1280" width="140" height="70" as="geometry" />
        </mxCell>
        <mxCell id="jUUPXSAqXy0v0D-0EIsb-100" value="阿里云COS" style="ellipse;whiteSpace=wrap;html=1;strokeColor=#0066CC;fillColor=#FFFFFF;fontSize=10;" vertex="1" parent="1">
          <mxGeometry x="480" y="1280" width="140" height="70" as="geometry" />
        </mxCell>
      </root>
    </mxGraphModel>
  </diagram>
</mxfile>
